<svg version="1.1" id="Layer_1" xmlns="http://www.w3.org/2000/svg" xmlns:xlink="http://www.w3.org/1999/xlink" x="0px" y="0px"
	 width="100%" viewBox="0 0 128 128" enable-background="new 0 0 128 128" xml:space="preserve">
<path fill="#FFFFFF" opacity="1.000000" stroke="none" 
	d="
M30.000000,1.000000 
	C62.938492,1.000000 95.876984,1.000000 128.907745,1.000000 
	C128.907745,43.666542 128.907745,86.333237 128.907745,129.000000 
	C124.598778,129.000000 120.273521,129.000000 115.568405,128.655426 
	C118.783730,124.601578 122.734215,121.164101 125.851379,117.089165 
	C127.993416,114.288986 125.800606,108.975090 122.781059,109.200722 
	C118.526825,109.518593 116.860870,106.364716 114.005379,104.723442 
	C110.357368,102.626656 108.710739,97.132164 103.109756,97.893677 
	C102.951363,97.370041 102.895683,97.158752 102.921783,96.591125 
	C105.015884,92.775635 107.166466,89.387970 109.002190,85.837524 
	C110.894463,82.177696 109.560036,77.698891 106.386765,76.108437 
	C102.410568,74.115555 98.143623,75.301453 95.995667,79.053490 
	C95.115143,80.591583 94.357277,82.199890 93.457687,83.942749 
	C89.448372,79.054779 85.810654,74.452957 81.981071,70.016777 
	C79.857140,67.556427 77.412636,65.372810 74.854271,62.921360 
	C74.408577,62.240379 74.221237,61.702499 74.346008,61.025215 
	C77.455002,57.285404 80.251884,53.684990 83.379791,50.024769 
	C84.491158,49.583874 85.271484,49.202789 86.442154,48.906960 
	C92.981964,45.974339 99.164505,43.019550 105.230110,39.841583 
	C105.840767,39.521637 106.273872,37.568371 105.891632,36.852394 
	C102.806610,31.073858 99.506493,25.410154 96.813461,20.665312 
	C91.183556,22.027845 86.785614,23.092222 82.080399,24.230967 
	C82.029335,24.919708 81.921562,26.373512 81.846962,27.379803 
	C75.009750,31.411304 68.512466,35.242371 62.009865,38.756821 
	C62.015205,38.018135 62.025856,37.596062 62.396301,36.971035 
	C62.104126,32.335918 61.533623,27.888454 60.707283,23.489046 
	C60.591045,22.870193 59.258862,22.415005 58.429642,22.005194 
	C52.605789,19.126976 46.284294,16.952026 41.080235,13.216981 
	C36.713451,10.082865 33.643898,5.141314 30.000000,1.000000 
z"/>
<path fill="#FFFFFF" opacity="1.000000" stroke="none" 
	d="
M109.000000,129.000000 
	C73.060677,129.000000 37.121353,129.000000 1.091014,129.000000 
	C1.091014,86.333427 1.091014,43.666748 1.096204,1.000032 
	C8.755135,1.000000 16.408875,1.000000 24.527161,1.440428 
	C26.380878,10.404665 27.649691,18.952003 29.305679,27.423656 
	C29.522087,28.530754 31.727037,29.249144 32.959969,30.477905 
	C32.917782,31.475161 32.926567,32.142086 32.587105,33.020493 
	C33.643810,38.481392 34.989025,43.748676 36.546207,48.952541 
	C36.701824,49.472580 38.145641,49.607143 39.016239,50.243568 
	C39.009228,50.996563 38.977577,51.426601 38.618618,52.003494 
	C32.722359,56.250526 26.643106,58.879978 19.591413,59.106079 
	C18.752363,59.132980 17.287994,60.713413 17.330254,61.509117 
	C17.376583,62.381493 18.757675,63.757999 19.692764,63.880646 
	C21.313612,64.093239 23.038935,63.509300 25.007757,63.216724 
	C25.007757,64.551041 25.007757,65.687164 24.731010,66.959732 
	C23.961826,67.452225 23.469389,67.808273 22.608187,68.083878 
	C21.230305,68.426231 19.934917,68.582779 19.256037,69.312721 
	C11.887872,77.235031 6.643312,86.387550 4.138032,96.945557 
	C3.863917,98.100769 5.247180,99.649269 5.904336,101.238007 
	C5.946952,101.460670 5.930027,101.913757 5.536922,101.954681 
	C-0.012129,105.341301 4.960739,109.623489 4.286079,113.512833 
	C3.615447,117.378952 9.541766,123.413788 13.199887,123.947540 
	C18.848133,124.771652 24.634434,124.655327 28.520401,119.815758 
	C32.642056,114.682663 33.286163,108.888977 30.036993,102.714424 
	C25.735916,94.540878 26.648699,91.066017 33.901886,85.049667 
	C45.323124,90.620979 53.233017,87.501045 54.374321,77.158539 
	C54.767647,77.542305 54.927456,77.834282 55.040970,78.488937 
	C55.784718,80.198044 56.274857,81.920296 57.413952,82.829338 
	C64.307976,88.331001 71.350243,93.646912 78.315872,99.004082 
	C77.421104,99.699738 75.898895,100.850655 74.412254,102.045807 
	C71.370834,104.490891 71.237938,107.430412 72.920967,110.721092 
	C74.712936,114.224770 77.504379,115.763130 81.086853,113.957870 
	C85.457657,111.755363 89.555641,109.011429 94.070984,106.705734 
	C94.602219,106.978363 94.834076,107.046906 94.953629,107.423141 
	C95.296822,113.458778 100.696205,115.284264 103.741341,118.965843 
	C104.600098,120.004089 106.041100,120.695808 106.569527,121.843643 
	C107.617340,124.119690 108.215813,126.602592 109.000000,129.000000 
z"/>
<path fill="#040403" opacity="1.000000" stroke="none" 
	d="
M109.428467,129.000000 
	C108.215813,126.602592 107.617340,124.119690 106.569527,121.843643 
	C106.041100,120.695808 104.600098,120.004089 103.741341,118.965843 
	C100.696205,115.284264 95.296822,113.458778 95.320717,107.392624 
	C97.190041,107.763474 98.769257,108.247650 99.932076,109.226486 
	C102.695168,111.552406 105.358528,114.017960 107.874229,116.609543 
	C109.706535,118.497116 110.893013,118.033401 112.332047,115.881615 
	C113.499641,114.629753 114.364975,113.534615 114.725449,113.078407 
	C111.821236,109.837273 109.179779,107.126877 106.832535,104.181992 
	C105.392845,102.375732 104.403862,100.210220 103.212486,98.206039 
	C108.710739,97.132164 110.357368,102.626656 114.005379,104.723442 
	C116.860870,106.364716 118.526825,109.518593 122.781059,109.200722 
	C125.800606,108.975090 127.993416,114.288986 125.851379,117.089165 
	C122.734215,121.164101 118.783730,124.601578 115.094276,128.655426 
	C113.285645,129.000000 111.571281,129.000000 109.428467,129.000000 
M116.060768,121.619568 
	C118.219376,119.082687 120.377983,116.545815 122.536598,114.008942 
	C116.525223,115.648026 111.404221,121.777763 111.788849,125.640778 
	C113.267372,124.268120 114.412811,123.204697 116.060768,121.619568 
z"/>
<path fill="#050505" opacity="1.000000" stroke="none" 
	d="
M33.010941,30.147573 
	C31.727037,29.249144 29.522087,28.530754 29.305679,27.423656 
	C27.649691,18.952003 26.380878,10.404665 24.995852,1.440428 
	C26.388889,1.000000 27.777779,1.000000 29.583334,1.000000 
	C33.643898,5.141314 36.713451,10.082865 41.080235,13.216981 
	C46.284294,16.952026 52.605789,19.126976 58.429642,22.005194 
	C59.258862,22.415005 60.591045,22.870193 60.707283,23.489046 
	C61.533623,27.888454 62.104126,32.335918 62.009529,36.901947 
	C60.147987,35.096947 59.038239,33.155045 57.916519,31.220079 
	C56.858555,29.395082 56.222923,26.862555 54.637066,25.897669 
	C50.716557,23.512300 46.358280,21.846426 41.993053,19.604931 
	C38.119591,16.463545 34.429012,13.608628 29.908455,10.111665 
	C30.221460,11.830229 30.341557,12.403919 30.428917,12.982553 
	C31.292696,18.703758 32.151051,24.425781 33.010941,30.147573 
z"/>
<path fill="#060602" opacity="1.000000" stroke="none" 
	d="
M54.140808,77.066750 
	C53.233017,87.501045 45.323124,90.620979 33.901886,85.049667 
	C26.648699,91.066017 25.735916,94.540878 30.036993,102.714424 
	C33.286163,108.888977 32.642056,114.682663 28.520401,119.815758 
	C24.634434,124.655327 18.848133,124.771652 13.199887,123.947540 
	C9.541766,123.413788 3.615447,117.378952 4.286079,113.512833 
	C4.960739,109.623489 -0.012129,105.341301 5.824448,102.219147 
	C6.997637,104.981178 7.725592,107.500107 7.938511,110.061844 
	C8.571080,117.672592 13.810894,121.330734 21.697586,119.182770 
	C28.197393,115.038666 29.280430,110.879608 25.891796,104.335068 
	C21.521933,95.895470 21.863277,91.085403 28.125866,84.520241 
	C30.946033,81.563828 34.353329,79.013832 37.868778,76.903313 
	C48.111801,70.753899 58.542198,64.916481 68.902306,58.962254 
	C73.998146,56.033543 78.019760,52.219593 79.751053,46.731075 
	C76.435692,47.634983 73.273087,48.497246 70.093903,49.031708 
	C74.639351,45.563194 79.174591,42.381565 83.807724,39.349499 
	C84.237831,39.068024 85.289131,39.735764 86.041245,40.350891 
	C85.036583,43.854202 84.042671,46.969391 83.048759,50.084576 
	C80.251884,53.684990 77.455002,57.285404 73.988731,60.970734 
	C69.219772,63.407295 65.120209,65.758942 60.682816,68.168556 
	C56.974667,70.259331 53.512867,72.227928 54.140808,77.066750 
z"/>
<path fill="#050707" opacity="1.000000" stroke="none" 
	d="
M93.771622,106.501663 
	C89.555641,109.011429 85.457657,111.755363 81.086853,113.957870 
	C77.504379,115.763130 74.712936,114.224770 72.920967,110.721092 
	C71.237938,107.430412 71.370834,104.490891 74.412254,102.045807 
	C75.898895,100.850655 77.421104,99.699738 78.315872,99.004082 
	C71.350243,93.646912 64.307976,88.331001 57.413952,82.829338 
	C56.274857,81.920296 55.784718,80.198044 55.436413,78.386337 
	C57.672523,78.681122 59.636047,79.186302 61.231941,80.245430 
	C68.083427,84.792526 74.761444,89.604736 81.686470,94.032906 
	C82.626045,94.633698 84.605782,93.607819 86.421234,93.191254 
	C88.255112,91.375954 89.771660,89.704521 91.103828,88.236305 
	C85.791489,81.606194 80.670113,75.527069 75.984352,69.128914 
	C74.919289,67.674629 75.363243,65.115204 75.112625,63.064457 
	C77.412636,65.372810 79.857140,67.556427 81.981071,70.016777 
	C85.810654,74.452957 89.448372,79.054779 93.457687,83.942749 
	C94.357277,82.199890 95.115143,80.591583 95.995667,79.053490 
	C98.143623,75.301453 102.410568,74.115555 106.386765,76.108437 
	C109.560036,77.698891 110.894463,82.177696 109.002190,85.837524 
	C107.166466,89.387970 105.015884,92.775635 102.591248,96.626396 
	C100.715553,98.625679 99.252190,100.233353 97.504227,101.988556 
	C96.070290,103.591286 94.920952,105.046471 93.771622,106.501663 
M95.388206,88.814087 
	C89.786667,93.939072 84.103760,98.980087 78.653549,104.261238 
	C77.588097,105.293663 77.424973,107.257286 76.845657,108.791397 
	C78.288689,109.109528 80.157379,110.174179 81.109474,109.631302 
	C91.627426,103.634087 99.705643,95.208038 104.932152,84.239609 
	C105.407799,83.241417 104.515976,81.591629 104.259178,80.244431 
	C102.805962,80.623833 100.825462,80.542854 100.008896,81.478119 
	C98.289581,83.447311 97.180489,85.949303 95.388206,88.814087 
z"/>
<path fill="#030303" opacity="1.000000" stroke="none" 
	d="
M62.015182,39.073437 
	C68.512466,35.242371 75.009750,31.411304 81.846962,27.379803 
	C81.921562,26.373512 82.029335,24.919708 82.080399,24.230967 
	C86.785614,23.092222 91.183556,22.027845 96.813461,20.665312 
	C99.506493,25.410154 102.806610,31.073858 105.891632,36.852394 
	C106.273872,37.568371 105.840767,39.521637 105.230110,39.841583 
	C99.164505,43.019550 92.981964,45.974339 86.450089,48.548473 
	C87.398186,46.577366 88.487938,44.694977 90.108803,43.595783 
	C93.593727,41.232475 97.352203,39.272552 100.998703,37.147511 
	C100.801651,36.595455 100.604607,36.043396 100.407555,35.491341 
	C98.964256,35.813736 97.455368,35.966587 96.091492,36.494244 
	C93.351463,37.554298 90.690544,38.818859 87.969109,39.620079 
	C90.927551,36.253937 93.913864,33.266747 97.137352,30.042311 
	C96.372231,28.799875 95.450676,27.303427 94.311035,25.452818 
	C84.289711,31.206379 74.696091,36.806004 64.996132,42.214920 
	C62.750271,43.467266 60.141178,44.068222 57.709503,44.594948 
	C59.151573,42.505131 60.583378,40.789284 62.015182,39.073437 
z"/>
<path fill="#D7D7D7" opacity="1.000000" stroke="none" 
	d="
M74.854271,62.921360 
	C75.363243,65.115204 74.919289,67.674629 75.984352,69.128914 
	C80.670113,75.527069 85.791489,81.606194 91.103828,88.236305 
	C89.771660,89.704521 88.255112,91.375954 86.292847,92.854034 
	C84.270195,91.464905 82.690231,90.273117 81.116867,89.072662 
	C73.328445,83.130249 65.747368,76.988449 61.020645,68.110580 
	C65.120209,65.758942 69.219772,63.407295 73.676620,61.110134 
	C74.221237,61.702499 74.408577,62.240379 74.854271,62.921360 
z"/>
<path fill="#D6D6D6" opacity="1.000000" stroke="none" 
	d="
M62.009869,38.756821 
	C60.583378,40.789284 59.151573,42.505131 57.421238,44.517349 
	C56.733414,44.895668 56.344128,44.977615 55.658089,44.850498 
	C52.845432,41.434784 49.603237,41.395008 46.076385,42.088676 
	C44.524300,36.072544 42.853855,30.515663 41.547024,24.874548 
	C41.192497,23.344193 41.936256,21.559406 42.175934,19.891397 
	C46.358280,21.846426 50.716557,23.512300 54.637066,25.897669 
	C56.222923,26.862555 56.858555,29.395082 57.916519,31.220079 
	C59.038239,33.155045 60.147987,35.096947 61.649734,37.104904 
	C62.025856,37.596062 62.015205,38.018135 62.009869,38.756821 
z"/>
<path fill="#985836" opacity="1.000000" stroke="none" 
	d="
M97.788834,101.841034 
	C99.252190,100.233353 100.715553,98.625679 102.509460,96.982742 
	C102.895683,97.158752 102.951363,97.370041 103.109756,97.893677 
	C104.403862,100.210220 105.392845,102.375732 106.832535,104.181992 
	C109.179779,107.126877 111.821236,109.837273 114.725449,113.078407 
	C114.364975,113.534615 113.499641,114.629753 112.291245,115.534325 
	C107.228394,110.842850 102.508614,106.341942 97.788834,101.841034 
z"/>
<path fill="#3F3B3B" opacity="1.000000" stroke="none" 
	d="
M87.996979,39.999027 
	C90.690544,38.818859 93.351463,37.554298 96.091492,36.494244 
	C97.455368,35.966587 98.964256,35.813736 100.407555,35.491341 
	C100.604607,36.043396 100.801651,36.595455 100.998703,37.147511 
	C97.352203,39.272552 93.593727,41.232475 90.108803,43.595783 
	C88.487938,44.694977 87.398186,46.577366 86.059746,48.463215 
	C85.271484,49.202789 84.491158,49.583874 83.379791,50.024769 
	C84.042671,46.969391 85.036583,43.854202 86.365494,40.344147 
	C87.132668,39.965855 87.564819,39.982441 87.996979,39.999027 
z"/>
<path fill="#080704" opacity="1.000000" stroke="none" 
	d="
M46.094776,42.516247 
	C49.603237,41.395008 52.845432,41.434784 55.720779,45.215096 
	C57.937969,49.445202 56.112045,52.204319 53.501633,54.915985 
	C52.013836,55.256584 50.606033,56.127338 49.819839,55.739151 
	C42.371010,52.061245 38.035435,58.574184 32.488380,60.940460 
	C31.065042,61.547626 30.053541,63.120220 28.852839,64.249290 
	C29.025475,64.697830 29.198112,65.146362 29.370750,65.594902 
	C32.042686,65.594902 35.155224,66.485779 37.302036,65.424019 
	C43.199699,62.507168 48.692078,58.770859 54.697639,55.303307 
	C58.040081,53.639076 60.958996,51.870708 64.053978,50.499859 
	C65.301376,49.947350 66.934349,50.265366 68.371796,50.556236 
	C68.072021,51.504513 67.949951,52.357208 67.489372,52.622742 
	C57.642029,58.300076 47.789272,63.970493 37.840298,69.466171 
	C36.498001,70.207634 34.634754,70.006004 32.646790,70.117493 
	C29.856482,68.937042 27.432119,67.880165 25.007757,66.823288 
	C25.007757,65.687164 25.007757,64.551041 25.007757,63.216724 
	C23.038935,63.509300 21.313612,64.093239 19.692764,63.880646 
	C18.757675,63.757999 17.376583,62.381493 17.330254,61.509117 
	C17.287994,60.713413 18.752363,59.132980 19.591413,59.106079 
	C26.643106,58.879978 32.722359,56.250526 38.996208,52.061691 
	C40.746147,50.768135 41.933552,49.656815 42.801975,48.335804 
	C44.023609,46.477493 45.008591,44.463604 46.094776,42.516247 
M46.712166,48.003872 
	C47.620117,49.321220 48.323067,50.932087 49.551743,51.790234 
	C49.959366,52.074928 52.188881,50.651443 52.704189,49.583633 
	C53.085018,48.794498 52.081470,46.343391 51.618134,46.322392 
	C50.071671,46.252323 48.490749,46.942822 46.712166,48.003872 
z"/>
<path fill="#E4A819" opacity="1.000000" stroke="none" 
	d="
M24.731010,66.959732 
	C27.432119,67.880165 29.856482,68.937042 32.470509,70.387009 
	C23.328348,79.950584 16.822914,90.629089 14.736541,104.025986 
	C11.803782,106.380936 9.748090,109.267700 11.943340,112.268318 
	C13.397941,114.256577 16.584158,114.977982 19.009335,116.630310 
	C19.800743,117.742226 20.578012,118.490356 21.355282,119.238487 
	C13.810894,121.330734 8.571080,117.672592 7.938511,110.061844 
	C7.725592,107.500107 6.997637,104.981178 6.217552,102.178223 
	C5.930027,101.913757 5.946952,101.460670 6.087738,100.921738 
	C7.129535,99.076149 8.497493,97.885338 8.855131,96.443871 
	C11.036850,87.650398 15.503644,80.220497 21.466169,73.495255 
	C22.569885,72.250343 22.503363,69.967903 22.976952,68.164330 
	C23.469389,67.808273 23.961826,67.452225 24.731010,66.959732 
z"/>
<path fill="#BCBBBA" opacity="1.000000" stroke="none" 
	d="
M46.076385,42.088676 
	C45.008591,44.463604 44.023609,46.477493 42.801975,48.335804 
	C41.933552,49.656815 40.746147,50.768135 39.323517,51.914841 
	C38.977577,51.426601 39.009228,50.996563 39.140816,49.887821 
	C40.469143,42.961422 37.255695,38.035076 34.362144,33.034134 
	C34.210327,32.771751 33.425488,32.875637 32.935352,32.809010 
	C32.926567,32.142086 32.917782,31.475161 32.959969,30.477905 
	C32.151051,24.425781 31.292696,18.703758 30.428917,12.982553 
	C30.341557,12.403919 30.221460,11.830229 29.908455,10.111665 
	C34.429012,13.608628 38.119591,16.463545 41.993050,19.604931 
	C41.936256,21.559406 41.192497,23.344193 41.547024,24.874548 
	C42.853855,30.515663 44.524300,36.072544 46.076385,42.088676 
z"/>
<path fill="#BEBDBC" opacity="1.000000" stroke="none" 
	d="
M60.682816,68.168556 
	C65.747368,76.988449 73.328445,83.130249 81.116867,89.072662 
	C82.690231,90.273117 84.270195,91.464905 85.975510,92.997910 
	C84.605782,93.607819 82.626045,94.633698 81.686470,94.032906 
	C74.761444,89.604736 68.083427,84.792526 61.231941,80.245430 
	C59.636047,79.186302 57.672523,78.681122 55.482712,78.023666 
	C54.927456,77.834282 54.767647,77.542305 54.374321,77.158539 
	C53.512867,72.227928 56.974667,70.259331 60.682816,68.168556 
z"/>
<path fill="#080601" opacity="1.000000" stroke="none" 
	d="
M22.608187,68.083878 
	C22.503363,69.967903 22.569885,72.250343 21.466169,73.495255 
	C15.503644,80.220497 11.036850,87.650398 8.855131,96.443871 
	C8.497493,97.885338 7.129535,99.076149 6.045122,100.699081 
	C5.247180,99.649269 3.863917,98.100769 4.138032,96.945557 
	C6.643312,86.387550 11.887872,77.235031 19.256037,69.312721 
	C19.934917,68.582779 21.230305,68.426231 22.608187,68.083878 
z"/>
<path fill="#B47453" opacity="1.000000" stroke="none" 
	d="
M97.504227,101.988564 
	C102.508614,106.341942 107.228394,110.842850 111.988976,115.691055 
	C110.893013,118.033401 109.706535,118.497116 107.874229,116.609543 
	C105.358528,114.017960 102.695168,111.552406 99.932076,109.226486 
	C98.769257,108.247650 97.190041,107.763474 95.433029,107.084946 
	C94.834076,107.046906 94.602219,106.978363 94.070984,106.705734 
	C94.920952,105.046471 96.070290,103.591286 97.504227,101.988564 
z"/>
<path fill="#050505" opacity="1.000000" stroke="none" 
	d="
M32.587105,33.020493 
	C33.425488,32.875637 34.210327,32.771751 34.362144,33.034134 
	C37.255695,38.035076 40.469143,42.961422 39.116180,49.564865 
	C38.145641,49.607143 36.701824,49.472580 36.546207,48.952541 
	C34.989025,43.748676 33.643810,38.481392 32.587105,33.020493 
z"/>
<path fill="#4CC8B2" opacity="1.000000" stroke="none" 
	d="
M115.809509,121.880417 
	C114.412811,123.204697 113.267372,124.268120 111.788849,125.640778 
	C111.404221,121.777763 116.525223,115.648026 122.536598,114.008942 
	C120.377983,116.545815 118.219376,119.082687 115.809509,121.880417 
z"/>
<path fill="#E9CF14" opacity="1.000000" stroke="none" 
	d="
M21.697588,119.182770 
	C20.578012,118.490356 19.800743,117.742226 19.359398,116.505272 
	C23.564449,114.431053 25.034643,111.457497 23.630621,107.656181 
	C22.189587,103.754646 18.838440,103.003502 15.030535,103.822243 
	C16.822914,90.629089 23.328348,79.950584 32.836449,70.510590 
	C34.634754,70.006004 36.498001,70.207634 37.840298,69.466171 
	C47.789272,63.970493 57.642029,58.300076 67.489372,52.622742 
	C67.949951,52.357208 68.072021,51.504513 68.668137,50.439079 
	C69.359848,49.755093 69.735161,49.557301 70.110474,49.359512 
	C73.273087,48.497246 76.435692,47.634983 79.751053,46.731075 
	C78.019760,52.219593 73.998146,56.033543 68.902306,58.962254 
	C58.542198,64.916481 48.111801,70.753899 37.868778,76.903313 
	C34.353329,79.013832 30.946033,81.563828 28.125866,84.520241 
	C21.863277,91.085403 21.521933,95.895470 25.891796,104.335068 
	C29.280430,110.879608 28.197393,115.038666 21.697588,119.182770 
z"/>
<path fill="#626262" opacity="1.000000" stroke="none" 
	d="
M70.093903,49.031712 
	C69.735161,49.557301 69.359848,49.755093 68.688187,50.070045 
	C66.934349,50.265366 65.301376,49.947350 64.053978,50.499859 
	C60.958996,51.870708 58.040081,53.639076 54.578712,55.179329 
	C54.106979,55.110889 53.870010,54.862076 53.870010,54.862076 
	C56.112045,52.204319 57.937969,49.445202 56.017529,45.424164 
	C56.344128,44.977615 56.733414,44.895668 57.410965,44.891319 
	C60.141178,44.068222 62.750271,43.467266 64.996132,42.214920 
	C74.696091,36.806004 84.289711,31.206379 94.311035,25.452818 
	C95.450676,27.303427 96.372231,28.799875 97.137352,30.042311 
	C93.913864,33.266747 90.927551,36.253937 87.969109,39.620079 
	C87.564819,39.982441 87.132668,39.965855 86.376251,39.956017 
	C85.289131,39.735764 84.237831,39.068024 83.807724,39.349499 
	C79.174591,42.381565 74.639351,45.563194 70.093903,49.031712 
z"/>
<path fill="#4FD0B9" opacity="1.000000" stroke="none" 
	d="
M95.604584,88.523361 
	C97.180489,85.949303 98.289581,83.447311 100.008896,81.478119 
	C100.825462,80.542854 102.805962,80.623833 104.259178,80.244431 
	C104.515976,81.591629 105.407799,83.241417 104.932152,84.239609 
	C99.705643,95.208038 91.627426,103.634087 81.109474,109.631302 
	C80.157379,110.174179 78.288689,109.109528 76.845657,108.791397 
	C77.424973,107.257286 77.588097,105.293663 78.653549,104.261238 
	C84.103760,98.980087 89.786667,93.939072 95.604584,88.523361 
z"/>
<path fill="#626262" opacity="1.000000" stroke="none" 
	d="
M54.225910,55.234863 
	C48.692078,58.770859 43.199699,62.507168 37.302036,65.424019 
	C35.155224,66.485779 32.042686,65.594902 29.370750,65.594902 
	C29.198112,65.146362 29.025475,64.697830 28.852839,64.249290 
	C30.053541,63.120220 31.065042,61.547626 32.488380,60.940460 
	C38.035435,58.574184 42.371010,52.061245 49.819839,55.739151 
	C50.606033,56.127338 52.013836,55.256584 53.501633,54.915985 
	C53.870010,54.862076 54.106979,55.110889 54.225910,55.234863 
z"/>
<path fill="#E0C713" opacity="1.000000" stroke="none" 
	d="
M46.817596,47.672894 
	C48.490749,46.942822 50.071671,46.252323 51.618134,46.322392 
	C52.081470,46.343391 53.085018,48.794498 52.704189,49.583633 
	C52.188881,50.651443 49.959366,52.074928 49.551743,51.790234 
	C48.323067,50.932087 47.620117,49.321220 46.817596,47.672894 
z"/>
<path fill="#0E0C07" opacity="1.000000" stroke="none" 
	d="
M14.736541,104.025986 
	C18.838440,103.003502 22.189587,103.754646 23.630621,107.656181 
	C25.034643,111.457497 23.564449,114.431053 19.345257,116.141479 
	C16.584158,114.977982 13.397941,114.256577 11.943340,112.268318 
	C9.748090,109.267700 11.803782,106.380936 14.736541,104.025986 
z"/>
</svg>